<svg xmlns="http://www.w3.org/2000/svg" xmlns:xlink="http://www.w3.org/1999/xlink" width="720" zoomAndPan="magnify" viewBox="0 0 540 540.000001" height="720" preserveAspectRatio="xMidYMid meet" version="1.2"><defs><clipPath id="918a14be31"><path d="M 15.367188 320.285156 L 531.304688 320.285156 L 531.304688 348.515625 L 15.367188 348.515625 Z M 15.367188 320.285156 "></path></clipPath><clipPath id="2971178be2"><path d="M 20.660156 183.835938 L 66 183.835938 L 66 242.976562 L 20.660156 242.976562 Z M 20.660156 183.835938 "></path></clipPath><clipPath id="fd355b422e"><path d="M 61 183.835938 L 198 183.835938 L 198 242.976562 L 61 242.976562 Z M 61 183.835938 "></path></clipPath><clipPath id="ef9bd55e10"><path d="M 54 220 L 69 220 L 69 242.976562 L 54 242.976562 Z M 54 220 "></path></clipPath><clipPath id="23477476ff"><path d="M 193 183.835938 L 238.507812 183.835938 L 238.507812 242.976562 L 193 242.976562 Z M 193 183.835938 "></path></clipPath><clipPath id="19bf050369"><path d="M 190 220 L 206 220 L 206 242.976562 L 190 242.976562 Z M 190 220 "></path></clipPath></defs><g id="75f9cf4385"><g clip-rule="nonzero" clip-path="url(#918a14be31)"><path style=" stroke:none;fill-rule:nonzero;fill:#7ac142;fill-opacity:1;" d="M 15.367188 320.285156 L 531.285156 320.285156 L 531.285156 348.515625 L 15.367188 348.515625 Z M 15.367188 320.285156 "></path></g><g clip-rule="nonzero" clip-path="url(#2971178be2)"><path style=" stroke:none;fill-rule:nonzero;fill:#7ac142;fill-opacity:1;" d="M 65.824219 190.492188 L 30.039062 242.980469 L 20.960938 242.980469 L 61.285156 183.832031 L 65.824219 190.492188 "></path></g><g clip-rule="nonzero" clip-path="url(#fd355b422e)"><path style=" stroke:none;fill-rule:nonzero;fill:#7ac142;fill-opacity:1;" d="M 61.285156 183.832031 L 129.585938 204.992188 L 197.882812 183.832031 L 157.558594 242.980469 L 101.605469 242.980469 L 61.285156 183.832031 "></path></g><g clip-rule="nonzero" clip-path="url(#ef9bd55e10)"><path style=" stroke:none;fill-rule:nonzero;fill:#7ac142;fill-opacity:1;" d="M 68.523438 242.980469 L 54.050781 242.980469 L 54.050781 220 L 68.523438 220 L 68.523438 242.980469 "></path></g><g clip-rule="nonzero" clip-path="url(#23477476ff)"><path style=" stroke:none;fill-rule:nonzero;fill:#7ac142;fill-opacity:1;" d="M 193.34375 190.492188 L 229.128906 242.980469 L 238.207031 242.980469 L 197.882812 183.832031 L 193.34375 190.492188 "></path></g><g clip-rule="nonzero" clip-path="url(#19bf050369)"><path style=" stroke:none;fill-rule:nonzero;fill:#7ac142;fill-opacity:1;" d="M 190.644531 242.980469 L 205.121094 242.980469 L 205.121094 220 L 190.644531 220 L 190.644531 242.980469 "></path></g><g style="fill:#7ac142;fill-opacity:1;"><g transform="translate(247.653052, 273.47041)"><path style="stroke:none" d="M 16.859375 -13.09375 C 17.960938 -13.09375 18.738281 -13.28125 19.1875 -13.65625 C 19.632812 -14.03125 19.859375 -14.742188 19.859375 -15.796875 C 19.859375 -16.847656 19.632812 -17.554688 19.1875 -17.921875 C 18.738281 -18.296875 17.972656 -18.484375 16.890625 -18.484375 L 7.578125 -18.484375 L 7.578125 -13.09375 Z M 17 -22.0625 C 18.050781 -22.0625 19.015625 -21.9375 19.890625 -21.6875 C 20.773438 -21.4375 21.535156 -21.046875 22.171875 -20.515625 C 22.804688 -19.992188 23.296875 -19.335938 23.640625 -18.546875 C 23.984375 -17.765625 24.15625 -16.847656 24.15625 -15.796875 C 24.15625 -13.609375 23.546875 -12.015625 22.328125 -11.015625 C 21.117188 -10.015625 19.332031 -9.515625 16.96875 -9.515625 L 7.578125 -9.515625 L 7.578125 -1.296875 C 7.578125 -0.972656 7.625 -0.742188 7.71875 -0.609375 C 7.820312 -0.484375 8.054688 -0.421875 8.421875 -0.421875 L 8.421875 0 L 2.421875 0 L 2.421875 -0.421875 C 2.765625 -0.421875 2.992188 -0.484375 3.109375 -0.609375 C 3.222656 -0.742188 3.28125 -0.972656 3.28125 -1.296875 L 3.28125 -20.765625 C 3.28125 -21.085938 3.226562 -21.3125 3.125 -21.4375 C 3.019531 -21.570312 2.785156 -21.640625 2.421875 -21.640625 L 2.421875 -22.0625 Z M 17 -22.0625 "></path></g></g><g style="fill:#7ac142;fill-opacity:1;"><g transform="translate(272.903067, 273.47041)"><path style="stroke:none" d="M 16.828125 -12.96875 C 17.328125 -12.96875 17.804688 -13.019531 18.265625 -13.125 C 18.734375 -13.226562 19.144531 -13.394531 19.5 -13.625 C 19.851562 -13.851562 20.132812 -14.140625 20.34375 -14.484375 C 20.5625 -14.828125 20.671875 -15.242188 20.671875 -15.734375 C 20.671875 -16.234375 20.550781 -16.660156 20.3125 -17.015625 C 20.082031 -17.367188 19.785156 -17.648438 19.421875 -17.859375 C 19.066406 -18.078125 18.65625 -18.234375 18.1875 -18.328125 C 17.71875 -18.429688 17.253906 -18.484375 16.796875 -18.484375 L 7.546875 -18.484375 L 7.546875 -12.96875 Z M 17 -22.0625 C 18.15625 -22.0625 19.21875 -21.921875 20.1875 -21.640625 C 21.15625 -21.359375 22 -20.941406 22.71875 -20.390625 C 23.4375 -19.847656 23.992188 -19.179688 24.390625 -18.390625 C 24.785156 -17.609375 24.984375 -16.722656 24.984375 -15.734375 C 24.984375 -13.972656 24.484375 -12.53125 23.484375 -11.40625 C 22.484375 -10.289062 21 -9.582031 19.03125 -9.28125 L 24.28125 -1.84375 C 24.644531 -1.320312 24.914062 -0.953125 25.09375 -0.734375 C 25.28125 -0.523438 25.566406 -0.421875 25.953125 -0.421875 L 25.953125 0 L 19.21875 0 L 19.21875 -0.421875 C 19.394531 -0.421875 19.507812 -0.445312 19.5625 -0.5 C 19.613281 -0.550781 19.640625 -0.609375 19.640625 -0.671875 C 19.640625 -0.804688 19.601562 -0.9375 19.53125 -1.0625 C 19.46875 -1.1875 19.300781 -1.425781 19.03125 -1.78125 L 13.703125 -9.390625 L 7.453125 -9.390625 L 7.453125 -1.328125 C 7.453125 -0.984375 7.503906 -0.742188 7.609375 -0.609375 C 7.710938 -0.484375 7.945312 -0.421875 8.3125 -0.421875 L 8.3125 0 L 2.296875 0 L 2.296875 -0.421875 C 2.640625 -0.421875 2.867188 -0.484375 2.984375 -0.609375 C 3.097656 -0.742188 3.15625 -0.984375 3.15625 -1.328125 L 3.15625 -20.765625 C 3.15625 -21.085938 3.101562 -21.3125 3 -21.4375 C 2.894531 -21.570312 2.660156 -21.640625 2.296875 -21.640625 L 2.296875 -22.0625 Z M 17 -22.0625 "></path></g></g><g style="fill:#7ac142;fill-opacity:1;"><g transform="translate(299.850568, 273.47041)"><path style="stroke:none" d="M 5.96875 -11.03125 C 5.96875 -9.78125 6.179688 -8.675781 6.609375 -7.71875 C 7.035156 -6.757812 7.617188 -5.945312 8.359375 -5.28125 C 9.109375 -4.625 9.992188 -4.125 11.015625 -3.78125 C 12.035156 -3.445312 13.132812 -3.28125 14.3125 -3.28125 C 15.539062 -3.28125 16.671875 -3.457031 17.703125 -3.8125 C 18.734375 -4.175781 19.613281 -4.691406 20.34375 -5.359375 C 21.070312 -6.023438 21.632812 -6.835938 22.03125 -7.796875 C 22.4375 -8.765625 22.640625 -9.84375 22.640625 -11.03125 C 22.640625 -12.25 22.429688 -13.335938 22.015625 -14.296875 C 21.609375 -15.253906 21.035156 -16.066406 20.296875 -16.734375 C 19.554688 -17.398438 18.671875 -17.910156 17.640625 -18.265625 C 16.609375 -18.617188 15.488281 -18.796875 14.28125 -18.796875 C 13.125 -18.796875 12.039062 -18.625 11.03125 -18.28125 C 10.019531 -17.9375 9.140625 -17.4375 8.390625 -16.78125 C 7.648438 -16.125 7.0625 -15.3125 6.625 -14.34375 C 6.1875 -13.375 5.96875 -12.269531 5.96875 -11.03125 Z M 14.3125 -22.375 C 16.0625 -22.375 17.703125 -22.125 19.234375 -21.625 C 20.773438 -21.132812 22.117188 -20.40625 23.265625 -19.4375 C 24.410156 -18.476562 25.3125 -17.300781 25.96875 -15.90625 C 26.625 -14.519531 26.953125 -12.925781 26.953125 -11.125 C 26.953125 -9.1875 26.601562 -7.5 25.90625 -6.0625 C 25.207031 -4.625 24.28125 -3.4375 23.125 -2.5 C 21.976562 -1.5625 20.644531 -0.859375 19.125 -0.390625 C 17.613281 0.0664062 16.039062 0.296875 14.40625 0.296875 C 12.539062 0.296875 10.828125 0.0390625 9.265625 -0.46875 C 7.710938 -0.988281 6.367188 -1.734375 5.234375 -2.703125 C 4.109375 -3.671875 3.234375 -4.851562 2.609375 -6.25 C 1.984375 -7.644531 1.671875 -9.207031 1.671875 -10.9375 C 1.671875 -12.84375 2.007812 -14.503906 2.6875 -15.921875 C 3.363281 -17.347656 4.273438 -18.539062 5.421875 -19.5 C 6.578125 -20.46875 7.914062 -21.1875 9.4375 -21.65625 C 10.96875 -22.132812 12.59375 -22.375 14.3125 -22.375 Z M 14.3125 -22.375 "></path></g></g><g style="fill:#7ac142;fill-opacity:1;"><g transform="translate(328.465228, 273.47041)"><path style="stroke:none" d="M 16.859375 -13.09375 C 17.960938 -13.09375 18.738281 -13.28125 19.1875 -13.65625 C 19.632812 -14.03125 19.859375 -14.742188 19.859375 -15.796875 C 19.859375 -16.847656 19.632812 -17.554688 19.1875 -17.921875 C 18.738281 -18.296875 17.972656 -18.484375 16.890625 -18.484375 L 7.578125 -18.484375 L 7.578125 -13.09375 Z M 17 -22.0625 C 18.050781 -22.0625 19.015625 -21.9375 19.890625 -21.6875 C 20.773438 -21.4375 21.535156 -21.046875 22.171875 -20.515625 C 22.804688 -19.992188 23.296875 -19.335938 23.640625 -18.546875 C 23.984375 -17.765625 24.15625 -16.847656 24.15625 -15.796875 C 24.15625 -13.609375 23.546875 -12.015625 22.328125 -11.015625 C 21.117188 -10.015625 19.332031 -9.515625 16.96875 -9.515625 L 7.578125 -9.515625 L 7.578125 -1.296875 C 7.578125 -0.972656 7.625 -0.742188 7.71875 -0.609375 C 7.820312 -0.484375 8.054688 -0.421875 8.421875 -0.421875 L 8.421875 0 L 2.421875 0 L 2.421875 -0.421875 C 2.765625 -0.421875 2.992188 -0.484375 3.109375 -0.609375 C 3.222656 -0.742188 3.28125 -0.972656 3.28125 -1.296875 L 3.28125 -20.765625 C 3.28125 -21.085938 3.226562 -21.3125 3.125 -21.4375 C 3.019531 -21.570312 2.785156 -21.640625 2.421875 -21.640625 L 2.421875 -22.0625 Z M 17 -22.0625 "></path></g></g><g style="fill:#7ac142;fill-opacity:1;"><g transform="translate(353.715242, 273.47041)"><path style="stroke:none" d="M 23.4375 -17.703125 L 23 -17.703125 C 23 -18.222656 22.664062 -18.484375 22 -18.484375 L 7.390625 -18.484375 L 7.390625 -13.09375 L 16.921875 -13.09375 C 17.242188 -13.09375 17.492188 -13.144531 17.671875 -13.25 C 17.847656 -13.363281 17.9375 -13.578125 17.9375 -13.890625 L 18.375 -13.890625 L 18.375 -8.796875 L 17.9375 -8.796875 C 17.9375 -9.273438 17.601562 -9.515625 16.9375 -9.515625 L 7.390625 -9.515625 L 7.390625 -3.578125 L 22.25 -3.578125 C 22.9375 -3.578125 23.28125 -3.816406 23.28125 -4.296875 L 23.703125 -4.296875 L 23.703125 0.671875 L 23.28125 0.671875 C 23.28125 0.222656 22.9375 0 22.25 0 L 2.296875 0 L 2.296875 -0.421875 C 2.617188 -0.421875 2.832031 -0.476562 2.9375 -0.59375 C 3.039062 -0.71875 3.09375 -0.953125 3.09375 -1.296875 L 3.09375 -20.734375 C 3.09375 -21.054688 3.046875 -21.285156 2.953125 -21.421875 C 2.859375 -21.566406 2.640625 -21.640625 2.296875 -21.640625 L 2.296875 -22.0625 L 21.984375 -22.0625 C 22.660156 -22.0625 23 -22.285156 23 -22.734375 L 23.4375 -22.734375 Z M 23.4375 -17.703125 "></path></g></g><g style="fill:#7ac142;fill-opacity:1;"><g transform="translate(378.965257, 273.47041)"><path style="stroke:none" d="M 16.828125 -12.96875 C 17.328125 -12.96875 17.804688 -13.019531 18.265625 -13.125 C 18.734375 -13.226562 19.144531 -13.394531 19.5 -13.625 C 19.851562 -13.851562 20.132812 -14.140625 20.34375 -14.484375 C 20.5625 -14.828125 20.671875 -15.242188 20.671875 -15.734375 C 20.671875 -16.234375 20.550781 -16.660156 20.3125 -17.015625 C 20.082031 -17.367188 19.785156 -17.648438 19.421875 -17.859375 C 19.066406 -18.078125 18.65625 -18.234375 18.1875 -18.328125 C 17.71875 -18.429688 17.253906 -18.484375 16.796875 -18.484375 L 7.546875 -18.484375 L 7.546875 -12.96875 Z M 17 -22.0625 C 18.15625 -22.0625 19.21875 -21.921875 20.1875 -21.640625 C 21.15625 -21.359375 22 -20.941406 22.71875 -20.390625 C 23.4375 -19.847656 23.992188 -19.179688 24.390625 -18.390625 C 24.785156 -17.609375 24.984375 -16.722656 24.984375 -15.734375 C 24.984375 -13.972656 24.484375 -12.53125 23.484375 -11.40625 C 22.484375 -10.289062 21 -9.582031 19.03125 -9.28125 L 24.28125 -1.84375 C 24.644531 -1.320312 24.914062 -0.953125 25.09375 -0.734375 C 25.28125 -0.523438 25.566406 -0.421875 25.953125 -0.421875 L 25.953125 0 L 19.21875 0 L 19.21875 -0.421875 C 19.394531 -0.421875 19.507812 -0.445312 19.5625 -0.5 C 19.613281 -0.550781 19.640625 -0.609375 19.640625 -0.671875 C 19.640625 -0.804688 19.601562 -0.9375 19.53125 -1.0625 C 19.46875 -1.1875 19.300781 -1.425781 19.03125 -1.78125 L 13.703125 -9.390625 L 7.453125 -9.390625 L 7.453125 -1.328125 C 7.453125 -0.984375 7.503906 -0.742188 7.609375 -0.609375 C 7.710938 -0.484375 7.945312 -0.421875 8.3125 -0.421875 L 8.3125 0 L 2.296875 0 L 2.296875 -0.421875 C 2.640625 -0.421875 2.867188 -0.484375 2.984375 -0.609375 C 3.097656 -0.742188 3.15625 -0.984375 3.15625 -1.328125 L 3.15625 -20.765625 C 3.15625 -21.085938 3.101562 -21.3125 3 -21.4375 C 2.894531 -21.570312 2.660156 -21.640625 2.296875 -21.640625 L 2.296875 -22.0625 Z M 17 -22.0625 "></path></g></g><g style="fill:#7ac142;fill-opacity:1;"><g transform="translate(405.912758, 273.47041)"><path style="stroke:none" d="M 0.875 -22.796875 L 1.296875 -22.796875 C 1.296875 -22.304688 1.640625 -22.0625 2.328125 -22.0625 L 21.28125 -22.0625 C 21.945312 -22.0625 22.28125 -22.304688 22.28125 -22.796875 L 22.703125 -22.796875 L 22.703125 -17.734375 L 22.28125 -17.734375 C 22.28125 -18.234375 21.9375 -18.484375 21.25 -18.484375 L 13.9375 -18.484375 L 13.9375 -1.265625 C 13.9375 -0.960938 14 -0.742188 14.125 -0.609375 C 14.25 -0.484375 14.503906 -0.421875 14.890625 -0.421875 L 14.890625 0 L 8.734375 0 L 8.734375 -0.421875 C 9.117188 -0.421875 9.363281 -0.484375 9.46875 -0.609375 C 9.582031 -0.742188 9.640625 -0.960938 9.640625 -1.265625 L 9.640625 -18.484375 L 2.328125 -18.484375 C 1.640625 -18.484375 1.296875 -18.234375 1.296875 -17.734375 L 0.875 -17.734375 Z M 0.875 -22.796875 "></path></g></g><g style="fill:#7ac142;fill-opacity:1;"><g transform="translate(429.495599, 273.47041)"><path style="stroke:none" d="M 7.390625 -22.0625 L 7.390625 -21.640625 C 7.273438 -21.640625 7.179688 -21.609375 7.109375 -21.546875 C 7.035156 -21.492188 7 -21.4375 7 -21.375 C 7 -21.269531 7.0625 -21.132812 7.1875 -20.96875 L 12.828125 -13.21875 L 18.21875 -20.546875 C 18.320312 -20.671875 18.414062 -20.800781 18.5 -20.9375 C 18.59375 -21.082031 18.640625 -21.1875 18.640625 -21.25 C 18.640625 -21.351562 18.59375 -21.4375 18.5 -21.5 C 18.414062 -21.570312 18.320312 -21.617188 18.21875 -21.640625 L 18.21875 -22.0625 L 24.4375 -22.0625 L 24.4375 -21.640625 C 24.113281 -21.617188 23.816406 -21.5 23.546875 -21.28125 C 23.285156 -21.0625 23.054688 -20.804688 22.859375 -20.515625 L 14.9375 -9.515625 L 14.9375 -1.296875 C 14.9375 -0.972656 14.988281 -0.742188 15.09375 -0.609375 C 15.195312 -0.484375 15.398438 -0.421875 15.703125 -0.421875 L 15.703125 0 L 9.90625 0 L 9.90625 -0.421875 C 10.207031 -0.421875 10.40625 -0.484375 10.5 -0.609375 C 10.59375 -0.742188 10.640625 -0.972656 10.640625 -1.296875 L 10.640625 -9.515625 L 2.125 -20.765625 C 1.863281 -21.109375 1.648438 -21.332031 1.484375 -21.4375 C 1.328125 -21.550781 1.101562 -21.617188 0.8125 -21.640625 L 0.8125 -22.0625 Z M 7.390625 -22.0625 "></path></g></g><g style="fill:#7ac142;fill-opacity:1;"><g transform="translate(454.751165, 273.47041)"><path style="stroke:none" d=""></path></g></g><g style="fill:#7ac142;fill-opacity:1;"><g transform="translate(247.653052, 308.6112)"><path style="stroke:none" d="M 9.03125 -22.0625 L 9.03125 -21.640625 C 8.832031 -21.640625 8.648438 -21.585938 8.484375 -21.484375 C 8.328125 -21.390625 8.25 -21.25 8.25 -21.0625 C 8.25 -20.925781 8.304688 -20.742188 8.421875 -20.515625 C 8.546875 -20.296875 8.71875 -19.984375 8.9375 -19.578125 L 15.03125 -7.9375 L 21.34375 -19.640625 C 21.625 -20.171875 21.816406 -20.535156 21.921875 -20.734375 C 22.035156 -20.929688 22.09375 -21.09375 22.09375 -21.21875 C 22.09375 -21.457031 21.832031 -21.597656 21.3125 -21.640625 L 21.3125 -22.0625 L 28.015625 -22.0625 L 28.015625 -21.640625 C 27.671875 -21.640625 27.445312 -21.570312 27.34375 -21.4375 C 27.238281 -21.3125 27.1875 -21.078125 27.1875 -20.734375 L 27.1875 -1.328125 C 27.1875 -1.003906 27.234375 -0.769531 27.328125 -0.625 C 27.421875 -0.488281 27.648438 -0.421875 28.015625 -0.421875 L 28.015625 0 L 22.15625 0 L 22.15625 -0.421875 C 22.457031 -0.421875 22.65625 -0.484375 22.75 -0.609375 C 22.84375 -0.742188 22.890625 -0.984375 22.890625 -1.328125 L 22.890625 -14.9375 L 22.828125 -14.9375 L 15 0 L 14.578125 0 L 6.84375 -15.09375 L 6.796875 -15.09375 L 6.796875 -1.296875 C 6.796875 -0.953125 6.851562 -0.71875 6.96875 -0.59375 C 7.09375 -0.476562 7.335938 -0.421875 7.703125 -0.421875 L 7.703125 0 L 2.296875 0 L 2.296875 -0.421875 C 2.617188 -0.421875 2.832031 -0.476562 2.9375 -0.59375 C 3.039062 -0.71875 3.09375 -0.953125 3.09375 -1.296875 L 3.09375 -20.703125 C 3.09375 -21.046875 3.046875 -21.285156 2.953125 -21.421875 C 2.859375 -21.566406 2.640625 -21.640625 2.296875 -21.640625 L 2.296875 -22.0625 Z M 9.03125 -22.0625 "></path></g></g><g style="fill:#7ac142;fill-opacity:1;"><g transform="translate(277.965198, 308.6112)"><path style="stroke:none" d="M 9.359375 -9.28125 L 16.578125 -9.28125 L 12.9375 -17.21875 Z M 16.515625 -22.0625 L 16.515625 -21.640625 C 16.097656 -21.578125 15.890625 -21.425781 15.890625 -21.1875 C 15.890625 -21.03125 15.9375 -20.851562 16.03125 -20.65625 C 16.132812 -20.46875 16.238281 -20.25 16.34375 -20 L 24.953125 -1.578125 C 25.148438 -1.148438 25.304688 -0.847656 25.421875 -0.671875 C 25.546875 -0.503906 25.78125 -0.421875 26.125 -0.421875 L 26.125 0 L 20.09375 0 L 20.09375 -0.421875 C 20.457031 -0.421875 20.640625 -0.523438 20.640625 -0.734375 C 20.640625 -0.828125 20.597656 -0.972656 20.515625 -1.171875 C 20.441406 -1.378906 20.332031 -1.625 20.1875 -1.90625 L 18.34375 -5.8125 L 7.9375 -5.8125 C 7.5 -4.820312 7.132812 -4.023438 6.84375 -3.421875 C 6.5625 -2.816406 6.34375 -2.351562 6.1875 -2.03125 C 6.039062 -1.75 5.925781 -1.507812 5.84375 -1.3125 C 5.769531 -1.125 5.734375 -0.976562 5.734375 -0.875 C 5.734375 -0.613281 5.882812 -0.460938 6.1875 -0.421875 L 6.1875 0 L 0.78125 0 L 0.78125 -0.421875 C 1.101562 -0.441406 1.332031 -0.535156 1.46875 -0.703125 C 1.601562 -0.878906 1.757812 -1.171875 1.9375 -1.578125 L 10.21875 -20.1875 C 10.300781 -20.351562 10.375 -20.515625 10.4375 -20.671875 C 10.507812 -20.835938 10.546875 -20.976562 10.546875 -21.09375 C 10.546875 -21.394531 10.332031 -21.578125 9.90625 -21.640625 L 9.90625 -22.0625 Z M 16.515625 -22.0625 "></path></g></g><g style="fill:#7ac142;fill-opacity:1;"><g transform="translate(304.912699, 308.6112)"><path style="stroke:none" d="M 8.875 -22.0625 L 8.875 -21.640625 C 8.519531 -21.640625 8.296875 -21.597656 8.203125 -21.515625 C 8.109375 -21.441406 8.0625 -21.363281 8.0625 -21.28125 C 8.0625 -21.175781 8.171875 -21.015625 8.390625 -20.796875 L 21.546875 -6.828125 L 21.546875 -20.796875 C 21.546875 -21.117188 21.5 -21.335938 21.40625 -21.453125 C 21.320312 -21.578125 21.109375 -21.640625 20.765625 -21.640625 L 20.765625 -22.0625 L 26.1875 -22.0625 L 26.1875 -21.640625 C 25.882812 -21.640625 25.671875 -21.570312 25.546875 -21.4375 C 25.429688 -21.3125 25.375 -21.078125 25.375 -20.734375 L 25.375 -1.359375 C 25.375 -1.015625 25.425781 -0.769531 25.53125 -0.625 C 25.644531 -0.488281 25.863281 -0.421875 26.1875 -0.421875 L 26.1875 0 L 20.578125 0 L 20.578125 -0.421875 C 20.742188 -0.421875 20.882812 -0.4375 21 -0.46875 C 21.125 -0.5 21.1875 -0.566406 21.1875 -0.671875 C 21.1875 -0.785156 21.132812 -0.898438 21.03125 -1.015625 C 20.9375 -1.128906 20.804688 -1.273438 20.640625 -1.453125 L 6.96875 -16.125 L 6.96875 -1.265625 C 6.96875 -0.984375 7.019531 -0.769531 7.125 -0.625 C 7.226562 -0.488281 7.453125 -0.421875 7.796875 -0.421875 L 7.796875 0 L 2.421875 0 L 2.421875 -0.421875 C 2.742188 -0.421875 2.945312 -0.484375 3.03125 -0.609375 C 3.113281 -0.742188 3.15625 -0.957031 3.15625 -1.25 L 3.15625 -20.796875 C 3.15625 -21.117188 3.113281 -21.335938 3.03125 -21.453125 C 2.945312 -21.578125 2.742188 -21.640625 2.421875 -21.640625 L 2.421875 -22.0625 Z M 8.875 -22.0625 "></path></g></g><g style="fill:#7ac142;fill-opacity:1;"><g transform="translate(333.527359, 308.6112)"><path style="stroke:none" d="M 9.359375 -9.28125 L 16.578125 -9.28125 L 12.9375 -17.21875 Z M 16.515625 -22.0625 L 16.515625 -21.640625 C 16.097656 -21.578125 15.890625 -21.425781 15.890625 -21.1875 C 15.890625 -21.03125 15.9375 -20.851562 16.03125 -20.65625 C 16.132812 -20.46875 16.238281 -20.25 16.34375 -20 L 24.953125 -1.578125 C 25.148438 -1.148438 25.304688 -0.847656 25.421875 -0.671875 C 25.546875 -0.503906 25.78125 -0.421875 26.125 -0.421875 L 26.125 0 L 20.09375 0 L 20.09375 -0.421875 C 20.457031 -0.421875 20.640625 -0.523438 20.640625 -0.734375 C 20.640625 -0.828125 20.597656 -0.972656 20.515625 -1.171875 C 20.441406 -1.378906 20.332031 -1.625 20.1875 -1.90625 L 18.34375 -5.8125 L 7.9375 -5.8125 C 7.5 -4.820312 7.132812 -4.023438 6.84375 -3.421875 C 6.5625 -2.816406 6.34375 -2.351562 6.1875 -2.03125 C 6.039062 -1.75 5.925781 -1.507812 5.84375 -1.3125 C 5.769531 -1.125 5.734375 -0.976562 5.734375 -0.875 C 5.734375 -0.613281 5.882812 -0.460938 6.1875 -0.421875 L 6.1875 0 L 0.78125 0 L 0.78125 -0.421875 C 1.101562 -0.441406 1.332031 -0.535156 1.46875 -0.703125 C 1.601562 -0.878906 1.757812 -1.171875 1.9375 -1.578125 L 10.21875 -20.1875 C 10.300781 -20.351562 10.375 -20.515625 10.4375 -20.671875 C 10.507812 -20.835938 10.546875 -20.976562 10.546875 -21.09375 C 10.546875 -21.394531 10.332031 -21.578125 9.90625 -21.640625 L 9.90625 -22.0625 Z M 16.515625 -22.0625 "></path></g></g><g style="fill:#7ac142;fill-opacity:1;"><g transform="translate(360.47486, 308.6112)"><path style="stroke:none" d="M 15.125 -22.375 C 16.394531 -22.375 17.726562 -22.226562 19.125 -21.9375 C 20.519531 -21.65625 21.914062 -21.191406 23.3125 -20.546875 C 24.101562 -20.179688 24.585938 -20 24.765625 -20 C 25.023438 -20 25.226562 -20.113281 25.375 -20.34375 L 25.796875 -20.15625 L 22.859375 -15.1875 L 22.4375 -15.453125 C 22.46875 -15.660156 22.484375 -15.832031 22.484375 -15.96875 C 22.484375 -16.21875 22.28125 -16.507812 21.875 -16.84375 C 21.476562 -17.175781 20.945312 -17.484375 20.28125 -17.765625 C 19.613281 -18.046875 18.84375 -18.285156 17.96875 -18.484375 C 17.101562 -18.691406 16.207031 -18.796875 15.28125 -18.796875 C 13.96875 -18.796875 12.738281 -18.632812 11.59375 -18.3125 C 10.445312 -17.988281 9.457031 -17.507812 8.625 -16.875 C 7.800781 -16.238281 7.148438 -15.441406 6.671875 -14.484375 C 6.203125 -13.535156 5.96875 -12.425781 5.96875 -11.15625 C 5.96875 -9.863281 6.191406 -8.726562 6.640625 -7.75 C 7.097656 -6.769531 7.722656 -5.945312 8.515625 -5.28125 C 9.304688 -4.613281 10.234375 -4.113281 11.296875 -3.78125 C 12.367188 -3.445312 13.523438 -3.28125 14.765625 -3.28125 C 16.117188 -3.28125 17.390625 -3.445312 18.578125 -3.78125 C 19.773438 -4.113281 20.828125 -4.601562 21.734375 -5.25 L 21.734375 -7.765625 L 16.484375 -7.765625 C 16.242188 -7.765625 16.023438 -7.703125 15.828125 -7.578125 C 15.640625 -7.453125 15.546875 -7.269531 15.546875 -7.03125 L 15.125 -7.03125 L 15.125 -12.375 L 15.546875 -12.375 C 15.546875 -12.125 15.640625 -11.9375 15.828125 -11.8125 C 16.023438 -11.695312 16.242188 -11.640625 16.484375 -11.640625 L 26.609375 -11.640625 L 26.609375 -11.21875 C 26.222656 -11.15625 26.03125 -10.84375 26.03125 -10.28125 L 26.03125 -4.28125 C 26.03125 -4.070312 26.066406 -3.898438 26.140625 -3.765625 C 26.210938 -3.640625 26.359375 -3.554688 26.578125 -3.515625 L 26.578125 -3.09375 C 24.742188 -2.039062 22.800781 -1.210938 20.75 -0.609375 C 18.695312 -0.00390625 16.703125 0.296875 14.765625 0.296875 C 12.804688 0.296875 11.019531 0.046875 9.40625 -0.453125 C 7.800781 -0.960938 6.421875 -1.703125 5.265625 -2.671875 C 4.117188 -3.640625 3.234375 -4.820312 2.609375 -6.21875 C 1.984375 -7.613281 1.671875 -9.1875 1.671875 -10.9375 C 1.671875 -12.289062 1.859375 -13.515625 2.234375 -14.609375 C 2.617188 -15.703125 3.140625 -16.671875 3.796875 -17.515625 C 4.460938 -18.367188 5.238281 -19.101562 6.125 -19.71875 C 7.007812 -20.332031 7.945312 -20.835938 8.9375 -21.234375 C 9.925781 -21.628906 10.953125 -21.914062 12.015625 -22.09375 C 13.078125 -22.28125 14.113281 -22.375 15.125 -22.375 Z M 15.125 -22.375 "></path></g></g><g style="fill:#7ac142;fill-opacity:1;"><g transform="translate(389.089519, 308.6112)"><path style="stroke:none" d="M 23.4375 -17.703125 L 23 -17.703125 C 23 -18.222656 22.664062 -18.484375 22 -18.484375 L 7.390625 -18.484375 L 7.390625 -13.09375 L 16.921875 -13.09375 C 17.242188 -13.09375 17.492188 -13.144531 17.671875 -13.25 C 17.847656 -13.363281 17.9375 -13.578125 17.9375 -13.890625 L 18.375 -13.890625 L 18.375 -8.796875 L 17.9375 -8.796875 C 17.9375 -9.273438 17.601562 -9.515625 16.9375 -9.515625 L 7.390625 -9.515625 L 7.390625 -3.578125 L 22.25 -3.578125 C 22.9375 -3.578125 23.28125 -3.816406 23.28125 -4.296875 L 23.703125 -4.296875 L 23.703125 0.671875 L 23.28125 0.671875 C 23.28125 0.222656 22.9375 0 22.25 0 L 2.296875 0 L 2.296875 -0.421875 C 2.617188 -0.421875 2.832031 -0.476562 2.9375 -0.59375 C 3.039062 -0.71875 3.09375 -0.953125 3.09375 -1.296875 L 3.09375 -20.734375 C 3.09375 -21.054688 3.046875 -21.285156 2.953125 -21.421875 C 2.859375 -21.566406 2.640625 -21.640625 2.296875 -21.640625 L 2.296875 -22.0625 L 21.984375 -22.0625 C 22.660156 -22.0625 23 -22.285156 23 -22.734375 L 23.4375 -22.734375 Z M 23.4375 -17.703125 "></path></g></g><g style="fill:#7ac142;fill-opacity:1;"><g transform="translate(414.339534, 308.6112)"><path style="stroke:none" d="M 9.03125 -22.0625 L 9.03125 -21.640625 C 8.832031 -21.640625 8.648438 -21.585938 8.484375 -21.484375 C 8.328125 -21.390625 8.25 -21.25 8.25 -21.0625 C 8.25 -20.925781 8.304688 -20.742188 8.421875 -20.515625 C 8.546875 -20.296875 8.71875 -19.984375 8.9375 -19.578125 L 15.03125 -7.9375 L 21.34375 -19.640625 C 21.625 -20.171875 21.816406 -20.535156 21.921875 -20.734375 C 22.035156 -20.929688 22.09375 -21.09375 22.09375 -21.21875 C 22.09375 -21.457031 21.832031 -21.597656 21.3125 -21.640625 L 21.3125 -22.0625 L 28.015625 -22.0625 L 28.015625 -21.640625 C 27.671875 -21.640625 27.445312 -21.570312 27.34375 -21.4375 C 27.238281 -21.3125 27.1875 -21.078125 27.1875 -20.734375 L 27.1875 -1.328125 C 27.1875 -1.003906 27.234375 -0.769531 27.328125 -0.625 C 27.421875 -0.488281 27.648438 -0.421875 28.015625 -0.421875 L 28.015625 0 L 22.15625 0 L 22.15625 -0.421875 C 22.457031 -0.421875 22.65625 -0.484375 22.75 -0.609375 C 22.84375 -0.742188 22.890625 -0.984375 22.890625 -1.328125 L 22.890625 -14.9375 L 22.828125 -14.9375 L 15 0 L 14.578125 0 L 6.84375 -15.09375 L 6.796875 -15.09375 L 6.796875 -1.296875 C 6.796875 -0.953125 6.851562 -0.71875 6.96875 -0.59375 C 7.09375 -0.476562 7.335938 -0.421875 7.703125 -0.421875 L 7.703125 0 L 2.296875 0 L 2.296875 -0.421875 C 2.617188 -0.421875 2.832031 -0.476562 2.9375 -0.59375 C 3.039062 -0.71875 3.09375 -0.953125 3.09375 -1.296875 L 3.09375 -20.703125 C 3.09375 -21.046875 3.046875 -21.285156 2.953125 -21.421875 C 2.859375 -21.566406 2.640625 -21.640625 2.296875 -21.640625 L 2.296875 -22.0625 Z M 9.03125 -22.0625 "></path></g></g><g style="fill:#7ac142;fill-opacity:1;"><g transform="translate(444.65168, 308.6112)"><path style="stroke:none" d="M 23.4375 -17.703125 L 23 -17.703125 C 23 -18.222656 22.664062 -18.484375 22 -18.484375 L 7.390625 -18.484375 L 7.390625 -13.09375 L 16.921875 -13.09375 C 17.242188 -13.09375 17.492188 -13.144531 17.671875 -13.25 C 17.847656 -13.363281 17.9375 -13.578125 17.9375 -13.890625 L 18.375 -13.890625 L 18.375 -8.796875 L 17.9375 -8.796875 C 17.9375 -9.273438 17.601562 -9.515625 16.9375 -9.515625 L 7.390625 -9.515625 L 7.390625 -3.578125 L 22.25 -3.578125 C 22.9375 -3.578125 23.28125 -3.816406 23.28125 -4.296875 L 23.703125 -4.296875 L 23.703125 0.671875 L 23.28125 0.671875 C 23.28125 0.222656 22.9375 0 22.25 0 L 2.296875 0 L 2.296875 -0.421875 C 2.617188 -0.421875 2.832031 -0.476562 2.9375 -0.59375 C 3.039062 -0.71875 3.09375 -0.953125 3.09375 -1.296875 L 3.09375 -20.734375 C 3.09375 -21.054688 3.046875 -21.285156 2.953125 -21.421875 C 2.859375 -21.566406 2.640625 -21.640625 2.296875 -21.640625 L 2.296875 -22.0625 L 21.984375 -22.0625 C 22.660156 -22.0625 23 -22.285156 23 -22.734375 L 23.4375 -22.734375 Z M 23.4375 -17.703125 "></path></g></g><g style="fill:#7ac142;fill-opacity:1;"><g transform="translate(469.901695, 308.6112)"><path style="stroke:none" d="M 8.875 -22.0625 L 8.875 -21.640625 C 8.519531 -21.640625 8.296875 -21.597656 8.203125 -21.515625 C 8.109375 -21.441406 8.0625 -21.363281 8.0625 -21.28125 C 8.0625 -21.175781 8.171875 -21.015625 8.390625 -20.796875 L 21.546875 -6.828125 L 21.546875 -20.796875 C 21.546875 -21.117188 21.5 -21.335938 21.40625 -21.453125 C 21.320312 -21.578125 21.109375 -21.640625 20.765625 -21.640625 L 20.765625 -22.0625 L 26.1875 -22.0625 L 26.1875 -21.640625 C 25.882812 -21.640625 25.671875 -21.570312 25.546875 -21.4375 C 25.429688 -21.3125 25.375 -21.078125 25.375 -20.734375 L 25.375 -1.359375 C 25.375 -1.015625 25.425781 -0.769531 25.53125 -0.625 C 25.644531 -0.488281 25.863281 -0.421875 26.1875 -0.421875 L 26.1875 0 L 20.578125 0 L 20.578125 -0.421875 C 20.742188 -0.421875 20.882812 -0.4375 21 -0.46875 C 21.125 -0.5 21.1875 -0.566406 21.1875 -0.671875 C 21.1875 -0.785156 21.132812 -0.898438 21.03125 -1.015625 C 20.9375 -1.128906 20.804688 -1.273438 20.640625 -1.453125 L 6.96875 -16.125 L 6.96875 -1.265625 C 6.96875 -0.984375 7.019531 -0.769531 7.125 -0.625 C 7.226562 -0.488281 7.453125 -0.421875 7.796875 -0.421875 L 7.796875 0 L 2.421875 0 L 2.421875 -0.421875 C 2.742188 -0.421875 2.945312 -0.484375 3.03125 -0.609375 C 3.113281 -0.742188 3.15625 -0.957031 3.15625 -1.25 L 3.15625 -20.796875 C 3.15625 -21.117188 3.113281 -21.335938 3.03125 -21.453125 C 2.945312 -21.578125 2.742188 -21.640625 2.421875 -21.640625 L 2.421875 -22.0625 Z M 8.875 -22.0625 "></path></g></g><g style="fill:#7ac142;fill-opacity:1;"><g transform="translate(498.516354, 308.6112)"><path style="stroke:none" d="M 0.875 -22.796875 L 1.296875 -22.796875 C 1.296875 -22.304688 1.640625 -22.0625 2.328125 -22.0625 L 21.28125 -22.0625 C 21.945312 -22.0625 22.28125 -22.304688 22.28125 -22.796875 L 22.703125 -22.796875 L 22.703125 -17.734375 L 22.28125 -17.734375 C 22.28125 -18.234375 21.9375 -18.484375 21.25 -18.484375 L 13.9375 -18.484375 L 13.9375 -1.265625 C 13.9375 -0.960938 14 -0.742188 14.125 -0.609375 C 14.25 -0.484375 14.503906 -0.421875 14.890625 -0.421875 L 14.890625 0 L 8.734375 0 L 8.734375 -0.421875 C 9.117188 -0.421875 9.363281 -0.484375 9.46875 -0.609375 C 9.582031 -0.742188 9.640625 -0.960938 9.640625 -1.265625 L 9.640625 -18.484375 L 2.328125 -18.484375 C 1.640625 -18.484375 1.296875 -18.234375 1.296875 -17.734375 L 0.875 -17.734375 Z M 0.875 -22.796875 "></path></g></g><g style="fill:#000000;fill-opacity:1;"><g transform="translate(30.171464, 339.567834)"><path style="stroke:none" d="M 10.703125 -8.25 C 11.023438 -8.25 11.332031 -8.28125 11.625 -8.34375 C 11.914062 -8.40625 12.175781 -8.507812 12.40625 -8.65625 C 12.632812 -8.8125 12.816406 -9 12.953125 -9.21875 C 13.085938 -9.4375 13.15625 -9.695312 13.15625 -10 C 13.15625 -10.320312 13.078125 -10.59375 12.921875 -10.8125 C 12.773438 -11.039062 12.585938 -11.222656 12.359375 -11.359375 C 12.128906 -11.492188 11.863281 -11.59375 11.5625 -11.65625 C 11.269531 -11.726562 10.976562 -11.765625 10.6875 -11.765625 L 4.796875 -11.765625 L 4.796875 -8.25 Z M 10.8125 -14.03125 C 11.550781 -14.03125 12.226562 -13.941406 12.84375 -13.765625 C 13.457031 -13.585938 13.992188 -13.320312 14.453125 -12.96875 C 14.910156 -12.625 15.265625 -12.203125 15.515625 -11.703125 C 15.765625 -11.203125 15.890625 -10.632812 15.890625 -10 C 15.890625 -8.882812 15.570312 -7.96875 14.9375 -7.25 C 14.300781 -6.539062 13.359375 -6.09375 12.109375 -5.90625 L 15.4375 -1.171875 C 15.675781 -0.835938 15.851562 -0.601562 15.96875 -0.46875 C 16.082031 -0.332031 16.257812 -0.265625 16.5 -0.265625 L 16.5 0 L 12.21875 0 L 12.21875 -0.265625 C 12.332031 -0.265625 12.40625 -0.28125 12.4375 -0.3125 C 12.476562 -0.34375 12.5 -0.378906 12.5 -0.421875 C 12.5 -0.515625 12.472656 -0.597656 12.421875 -0.671875 C 12.378906 -0.753906 12.273438 -0.910156 12.109375 -1.140625 L 8.71875 -5.984375 L 4.75 -5.984375 L 4.75 -0.84375 C 4.75 -0.625 4.78125 -0.472656 4.84375 -0.390625 C 4.90625 -0.304688 5.050781 -0.265625 5.28125 -0.265625 L 5.28125 0 L 1.46875 0 L 1.46875 -0.265625 C 1.6875 -0.265625 1.828125 -0.304688 1.890625 -0.390625 C 1.960938 -0.472656 2 -0.625 2 -0.84375 L 2 -13.203125 C 2 -13.410156 1.96875 -13.554688 1.90625 -13.640625 C 1.84375 -13.722656 1.695312 -13.765625 1.46875 -13.765625 L 1.46875 -14.03125 Z M 10.8125 -14.03125 "></path></g></g><g style="fill:#000000;fill-opacity:1;"><g transform="translate(54.066124, 339.567834)"><path style="stroke:none" d="M 14.90625 -11.265625 L 14.640625 -11.265625 C 14.640625 -11.597656 14.425781 -11.765625 14 -11.765625 L 4.703125 -11.765625 L 4.703125 -8.328125 L 10.765625 -8.328125 C 10.960938 -8.328125 11.117188 -8.363281 11.234375 -8.4375 C 11.359375 -8.507812 11.421875 -8.640625 11.421875 -8.828125 L 11.6875 -8.828125 L 11.6875 -5.59375 L 11.421875 -5.59375 C 11.421875 -5.894531 11.207031 -6.046875 10.78125 -6.046875 L 4.703125 -6.046875 L 4.703125 -2.28125 L 14.15625 -2.28125 C 14.59375 -2.28125 14.8125 -2.429688 14.8125 -2.734375 L 15.078125 -2.734375 L 15.078125 0.421875 L 14.8125 0.421875 C 14.8125 0.140625 14.59375 0 14.15625 0 L 1.46875 0 L 1.46875 -0.265625 C 1.675781 -0.265625 1.8125 -0.300781 1.875 -0.375 C 1.9375 -0.457031 1.96875 -0.609375 1.96875 -0.828125 L 1.96875 -13.1875 C 1.96875 -13.394531 1.9375 -13.539062 1.875 -13.625 C 1.820312 -13.71875 1.6875 -13.765625 1.46875 -13.765625 L 1.46875 -14.03125 L 13.984375 -14.03125 C 14.421875 -14.03125 14.640625 -14.171875 14.640625 -14.453125 L 14.90625 -14.453125 Z M 14.90625 -11.265625 "></path></g></g><g style="fill:#000000;fill-opacity:1;"><g transform="translate(76.880992, 339.567834)"><path style="stroke:none" d="M 5.65625 -14.03125 L 5.65625 -13.765625 C 5.414062 -13.765625 5.265625 -13.738281 5.203125 -13.6875 C 5.148438 -13.632812 5.125 -13.582031 5.125 -13.53125 C 5.125 -13.46875 5.195312 -13.367188 5.34375 -13.234375 L 13.703125 -4.34375 L 13.703125 -13.234375 C 13.703125 -13.429688 13.671875 -13.566406 13.609375 -13.640625 C 13.554688 -13.722656 13.421875 -13.765625 13.203125 -13.765625 L 13.203125 -14.03125 L 16.65625 -14.03125 L 16.65625 -13.765625 C 16.46875 -13.765625 16.332031 -13.722656 16.25 -13.640625 C 16.175781 -13.554688 16.140625 -13.40625 16.140625 -13.1875 L 16.140625 -0.875 C 16.140625 -0.65625 16.171875 -0.5 16.234375 -0.40625 C 16.304688 -0.3125 16.445312 -0.265625 16.65625 -0.265625 L 16.65625 0 L 13.09375 0 L 13.09375 -0.265625 C 13.195312 -0.265625 13.285156 -0.273438 13.359375 -0.296875 C 13.441406 -0.316406 13.484375 -0.359375 13.484375 -0.421875 C 13.484375 -0.503906 13.445312 -0.578125 13.375 -0.640625 C 13.3125 -0.710938 13.226562 -0.804688 13.125 -0.921875 L 4.4375 -10.25 L 4.4375 -0.8125 C 4.4375 -0.632812 4.46875 -0.5 4.53125 -0.40625 C 4.59375 -0.3125 4.734375 -0.265625 4.953125 -0.265625 L 4.953125 0 L 1.546875 0 L 1.546875 -0.265625 C 1.742188 -0.265625 1.867188 -0.304688 1.921875 -0.390625 C 1.972656 -0.472656 2 -0.609375 2 -0.796875 L 2 -13.234375 C 2 -13.429688 1.972656 -13.566406 1.921875 -13.640625 C 1.867188 -13.722656 1.742188 -13.765625 1.546875 -13.765625 L 1.546875 -14.03125 Z M 5.65625 -14.03125 "></path></g></g><g style="fill:#000000;fill-opacity:1;"><g transform="translate(101.836188, 339.567834)"><path style="stroke:none" d="M 0.5625 -14.5 L 0.828125 -14.5 C 0.828125 -14.1875 1.046875 -14.03125 1.484375 -14.03125 L 13.53125 -14.03125 C 13.957031 -14.03125 14.171875 -14.1875 14.171875 -14.5 L 14.4375 -14.5 L 14.4375 -11.28125 L 14.171875 -11.28125 C 14.171875 -11.601562 13.953125 -11.765625 13.515625 -11.765625 L 8.875 -11.765625 L 8.875 -0.8125 C 8.875 -0.613281 8.910156 -0.472656 8.984375 -0.390625 C 9.054688 -0.304688 9.21875 -0.265625 9.46875 -0.265625 L 9.46875 0 L 5.546875 0 L 5.546875 -0.265625 C 5.796875 -0.265625 5.953125 -0.304688 6.015625 -0.390625 C 6.085938 -0.472656 6.125 -0.613281 6.125 -0.8125 L 6.125 -11.765625 L 1.484375 -11.765625 C 1.046875 -11.765625 0.828125 -11.601562 0.828125 -11.28125 L 0.5625 -11.28125 Z M 0.5625 -14.5 "></path></g></g><g style="fill:#000000;fill-opacity:1;"><g transform="translate(123.590534, 339.567834)"><path style="stroke:none" d=""></path></g></g><g style="fill:#000000;fill-opacity:1;"><g transform="translate(137.844085, 339.567834)"><path style="stroke:none" d="M 3.046875 -14.453125 L 3.046875 4.8125 L 1.234375 4.8125 L 1.234375 -14.453125 Z M 3.046875 -14.453125 "></path></g></g><g style="fill:#000000;fill-opacity:1;"><g transform="translate(148.877516, 339.567834)"><path style="stroke:none" d=""></path></g></g><g style="fill:#000000;fill-opacity:1;"><g transform="translate(163.131067, 339.567834)"><path style="stroke:none" d="M 5.75 -14.03125 L 5.75 -13.765625 C 5.613281 -13.765625 5.492188 -13.734375 5.390625 -13.671875 C 5.296875 -13.609375 5.25 -13.519531 5.25 -13.40625 C 5.25 -13.3125 5.285156 -13.191406 5.359375 -13.046875 C 5.429688 -12.910156 5.539062 -12.710938 5.6875 -12.453125 L 9.5625 -5.046875 L 13.578125 -12.5 C 13.753906 -12.832031 13.878906 -13.0625 13.953125 -13.1875 C 14.023438 -13.3125 14.0625 -13.414062 14.0625 -13.5 C 14.0625 -13.65625 13.890625 -13.742188 13.546875 -13.765625 L 13.546875 -14.03125 L 17.8125 -14.03125 L 17.8125 -13.765625 C 17.59375 -13.765625 17.453125 -13.722656 17.390625 -13.640625 C 17.328125 -13.554688 17.296875 -13.40625 17.296875 -13.1875 L 17.296875 -0.84375 C 17.296875 -0.644531 17.320312 -0.5 17.375 -0.40625 C 17.4375 -0.3125 17.582031 -0.265625 17.8125 -0.265625 L 17.8125 0 L 14.09375 0 L 14.09375 -0.265625 C 14.289062 -0.265625 14.414062 -0.304688 14.46875 -0.390625 C 14.53125 -0.472656 14.5625 -0.625 14.5625 -0.84375 L 14.5625 -9.5 L 14.515625 -9.5 L 9.546875 0 L 9.28125 0 L 4.359375 -9.609375 L 4.3125 -9.609375 L 4.3125 -0.828125 C 4.3125 -0.609375 4.347656 -0.457031 4.421875 -0.375 C 4.503906 -0.300781 4.660156 -0.265625 4.890625 -0.265625 L 4.890625 0 L 1.46875 0 L 1.46875 -0.265625 C 1.675781 -0.265625 1.8125 -0.300781 1.875 -0.375 C 1.9375 -0.457031 1.96875 -0.609375 1.96875 -0.828125 L 1.96875 -13.171875 C 1.96875 -13.390625 1.9375 -13.539062 1.875 -13.625 C 1.820312 -13.71875 1.6875 -13.765625 1.46875 -13.765625 L 1.46875 -14.03125 Z M 5.75 -14.03125 "></path></g></g><g style="fill:#000000;fill-opacity:1;"><g transform="translate(189.166056, 339.567834)"><path style="stroke:none" d="M 5.953125 -5.90625 L 10.546875 -5.90625 L 8.234375 -10.953125 Z M 10.515625 -14.03125 L 10.515625 -13.765625 C 10.242188 -13.722656 10.109375 -13.628906 10.109375 -13.484375 C 10.109375 -13.378906 10.140625 -13.265625 10.203125 -13.140625 C 10.265625 -13.015625 10.328125 -12.875 10.390625 -12.71875 L 15.875 -1 C 16 -0.726562 16.097656 -0.535156 16.171875 -0.421875 C 16.253906 -0.316406 16.40625 -0.265625 16.625 -0.265625 L 16.625 0 L 12.78125 0 L 12.78125 -0.265625 C 13.007812 -0.265625 13.125 -0.332031 13.125 -0.46875 C 13.125 -0.53125 13.097656 -0.625 13.046875 -0.75 C 12.992188 -0.875 12.925781 -1.03125 12.84375 -1.21875 L 11.671875 -3.703125 L 5.046875 -3.703125 C 4.765625 -3.066406 4.535156 -2.554688 4.359375 -2.171875 C 4.179688 -1.785156 4.039062 -1.492188 3.9375 -1.296875 C 3.84375 -1.109375 3.769531 -0.953125 3.71875 -0.828125 C 3.664062 -0.710938 3.640625 -0.625 3.640625 -0.5625 C 3.640625 -0.394531 3.738281 -0.296875 3.9375 -0.265625 L 3.9375 0 L 0.5 0 L 0.5 -0.265625 C 0.707031 -0.285156 0.851562 -0.347656 0.9375 -0.453125 C 1.019531 -0.554688 1.117188 -0.738281 1.234375 -1 L 6.5 -12.84375 C 6.550781 -12.945312 6.597656 -13.046875 6.640625 -13.140625 C 6.679688 -13.242188 6.703125 -13.335938 6.703125 -13.421875 C 6.703125 -13.609375 6.570312 -13.722656 6.3125 -13.765625 L 6.3125 -14.03125 Z M 10.515625 -14.03125 "></path></g></g><g style="fill:#000000;fill-opacity:1;"><g transform="translate(213.060716, 339.567834)"><path style="stroke:none" d="M 5.65625 -14.03125 L 5.65625 -13.765625 C 5.414062 -13.765625 5.265625 -13.738281 5.203125 -13.6875 C 5.148438 -13.632812 5.125 -13.582031 5.125 -13.53125 C 5.125 -13.46875 5.195312 -13.367188 5.34375 -13.234375 L 13.703125 -4.34375 L 13.703125 -13.234375 C 13.703125 -13.429688 13.671875 -13.566406 13.609375 -13.640625 C 13.554688 -13.722656 13.421875 -13.765625 13.203125 -13.765625 L 13.203125 -14.03125 L 16.65625 -14.03125 L 16.65625 -13.765625 C 16.46875 -13.765625 16.332031 -13.722656 16.25 -13.640625 C 16.175781 -13.554688 16.140625 -13.40625 16.140625 -13.1875 L 16.140625 -0.875 C 16.140625 -0.65625 16.171875 -0.5 16.234375 -0.40625 C 16.304688 -0.3125 16.445312 -0.265625 16.65625 -0.265625 L 16.65625 0 L 13.09375 0 L 13.09375 -0.265625 C 13.195312 -0.265625 13.285156 -0.273438 13.359375 -0.296875 C 13.441406 -0.316406 13.484375 -0.359375 13.484375 -0.421875 C 13.484375 -0.503906 13.445312 -0.578125 13.375 -0.640625 C 13.3125 -0.710938 13.226562 -0.804688 13.125 -0.921875 L 4.4375 -10.25 L 4.4375 -0.8125 C 4.4375 -0.632812 4.46875 -0.5 4.53125 -0.40625 C 4.59375 -0.3125 4.734375 -0.265625 4.953125 -0.265625 L 4.953125 0 L 1.546875 0 L 1.546875 -0.265625 C 1.742188 -0.265625 1.867188 -0.304688 1.921875 -0.390625 C 1.972656 -0.472656 2 -0.609375 2 -0.796875 L 2 -13.234375 C 2 -13.429688 1.972656 -13.566406 1.921875 -13.640625 C 1.867188 -13.722656 1.742188 -13.765625 1.546875 -13.765625 L 1.546875 -14.03125 Z M 5.65625 -14.03125 "></path></g></g><g style="fill:#000000;fill-opacity:1;"><g transform="translate(238.015912, 339.567834)"><path style="stroke:none" d="M 5.953125 -5.90625 L 10.546875 -5.90625 L 8.234375 -10.953125 Z M 10.515625 -14.03125 L 10.515625 -13.765625 C 10.242188 -13.722656 10.109375 -13.628906 10.109375 -13.484375 C 10.109375 -13.378906 10.140625 -13.265625 10.203125 -13.140625 C 10.265625 -13.015625 10.328125 -12.875 10.390625 -12.71875 L 15.875 -1 C 16 -0.726562 16.097656 -0.535156 16.171875 -0.421875 C 16.253906 -0.316406 16.40625 -0.265625 16.625 -0.265625 L 16.625 0 L 12.78125 0 L 12.78125 -0.265625 C 13.007812 -0.265625 13.125 -0.332031 13.125 -0.46875 C 13.125 -0.53125 13.097656 -0.625 13.046875 -0.75 C 12.992188 -0.875 12.925781 -1.03125 12.84375 -1.21875 L 11.671875 -3.703125 L 5.046875 -3.703125 C 4.765625 -3.066406 4.535156 -2.554688 4.359375 -2.171875 C 4.179688 -1.785156 4.039062 -1.492188 3.9375 -1.296875 C 3.84375 -1.109375 3.769531 -0.953125 3.71875 -0.828125 C 3.664062 -0.710938 3.640625 -0.625 3.640625 -0.5625 C 3.640625 -0.394531 3.738281 -0.296875 3.9375 -0.265625 L 3.9375 0 L 0.5 0 L 0.5 -0.265625 C 0.707031 -0.285156 0.851562 -0.347656 0.9375 -0.453125 C 1.019531 -0.554688 1.117188 -0.738281 1.234375 -1 L 6.5 -12.84375 C 6.550781 -12.945312 6.597656 -13.046875 6.640625 -13.140625 C 6.679688 -13.242188 6.703125 -13.335938 6.703125 -13.421875 C 6.703125 -13.609375 6.570312 -13.722656 6.3125 -13.765625 L 6.3125 -14.03125 Z M 10.515625 -14.03125 "></path></g></g><g style="fill:#000000;fill-opacity:1;"><g transform="translate(261.910572, 339.567834)"><path style="stroke:none" d="M 9.625 -14.234375 C 10.4375 -14.234375 11.285156 -14.140625 12.171875 -13.953125 C 13.054688 -13.773438 13.941406 -13.484375 14.828125 -13.078125 C 15.328125 -12.835938 15.632812 -12.71875 15.75 -12.71875 C 15.914062 -12.71875 16.046875 -12.789062 16.140625 -12.9375 L 16.40625 -12.828125 L 14.53125 -9.65625 L 14.265625 -9.828125 C 14.296875 -9.960938 14.3125 -10.070312 14.3125 -10.15625 C 14.3125 -10.3125 14.179688 -10.492188 13.921875 -10.703125 C 13.660156 -10.921875 13.316406 -11.117188 12.890625 -11.296875 C 12.472656 -11.472656 11.988281 -11.625 11.4375 -11.75 C 10.882812 -11.882812 10.3125 -11.953125 9.71875 -11.953125 C 8.882812 -11.953125 8.101562 -11.847656 7.375 -11.640625 C 6.644531 -11.441406 6.015625 -11.140625 5.484375 -10.734375 C 4.960938 -10.328125 4.550781 -9.820312 4.25 -9.21875 C 3.945312 -8.613281 3.796875 -7.90625 3.796875 -7.09375 C 3.796875 -6.269531 3.941406 -5.546875 4.234375 -4.921875 C 4.523438 -4.296875 4.921875 -3.769531 5.421875 -3.34375 C 5.921875 -2.925781 6.507812 -2.609375 7.1875 -2.390625 C 7.875 -2.179688 8.609375 -2.078125 9.390625 -2.078125 C 10.253906 -2.078125 11.0625 -2.179688 11.8125 -2.390625 C 12.570312 -2.609375 13.242188 -2.921875 13.828125 -3.328125 L 13.828125 -4.9375 L 10.484375 -4.9375 C 10.328125 -4.9375 10.1875 -4.894531 10.0625 -4.8125 C 9.945312 -4.738281 9.890625 -4.625 9.890625 -4.46875 L 9.625 -4.46875 L 9.625 -7.859375 L 9.890625 -7.859375 C 9.890625 -7.710938 9.945312 -7.597656 10.0625 -7.515625 C 10.1875 -7.441406 10.328125 -7.40625 10.484375 -7.40625 L 16.921875 -7.40625 L 16.921875 -7.140625 C 16.679688 -7.097656 16.5625 -6.894531 16.5625 -6.53125 L 16.5625 -2.71875 C 16.5625 -2.59375 16.582031 -2.488281 16.625 -2.40625 C 16.675781 -2.320312 16.769531 -2.265625 16.90625 -2.234375 L 16.90625 -1.96875 C 15.738281 -1.300781 14.5 -0.773438 13.1875 -0.390625 C 11.882812 -0.00390625 10.617188 0.1875 9.390625 0.1875 C 8.140625 0.1875 7.003906 0.03125 5.984375 -0.28125 C 4.960938 -0.601562 4.082031 -1.070312 3.34375 -1.6875 C 2.613281 -2.3125 2.050781 -3.066406 1.65625 -3.953125 C 1.257812 -4.835938 1.0625 -5.835938 1.0625 -6.953125 C 1.0625 -7.816406 1.179688 -8.59375 1.421875 -9.28125 C 1.671875 -9.976562 2.003906 -10.597656 2.421875 -11.140625 C 2.835938 -11.679688 3.328125 -12.144531 3.890625 -12.53125 C 4.460938 -12.925781 5.0625 -13.25 5.6875 -13.5 C 6.3125 -13.75 6.960938 -13.929688 7.640625 -14.046875 C 8.316406 -14.171875 8.976562 -14.234375 9.625 -14.234375 Z M 9.625 -14.234375 "></path></g></g><g style="fill:#000000;fill-opacity:1;"><g transform="translate(286.865768, 339.567834)"><path style="stroke:none" d="M 14.90625 -11.265625 L 14.640625 -11.265625 C 14.640625 -11.597656 14.425781 -11.765625 14 -11.765625 L 4.703125 -11.765625 L 4.703125 -8.328125 L 10.765625 -8.328125 C 10.960938 -8.328125 11.117188 -8.363281 11.234375 -8.4375 C 11.359375 -8.507812 11.421875 -8.640625 11.421875 -8.828125 L 11.6875 -8.828125 L 11.6875 -5.59375 L 11.421875 -5.59375 C 11.421875 -5.894531 11.207031 -6.046875 10.78125 -6.046875 L 4.703125 -6.046875 L 4.703125 -2.28125 L 14.15625 -2.28125 C 14.59375 -2.28125 14.8125 -2.429688 14.8125 -2.734375 L 15.078125 -2.734375 L 15.078125 0.421875 L 14.8125 0.421875 C 14.8125 0.140625 14.59375 0 14.15625 0 L 1.46875 0 L 1.46875 -0.265625 C 1.675781 -0.265625 1.8125 -0.300781 1.875 -0.375 C 1.9375 -0.457031 1.96875 -0.609375 1.96875 -0.828125 L 1.96875 -13.1875 C 1.96875 -13.394531 1.9375 -13.539062 1.875 -13.625 C 1.820312 -13.71875 1.6875 -13.765625 1.46875 -13.765625 L 1.46875 -14.03125 L 13.984375 -14.03125 C 14.421875 -14.03125 14.640625 -14.171875 14.640625 -14.453125 L 14.90625 -14.453125 Z M 14.90625 -11.265625 "></path></g></g><g style="fill:#000000;fill-opacity:1;"><g transform="translate(309.680652, 339.567834)"><path style="stroke:none" d=""></path></g></g><g style="fill:#000000;fill-opacity:1;"><g transform="translate(323.934203, 339.567834)"><path style="stroke:none" d="M 3.046875 -14.453125 L 3.046875 4.8125 L 1.234375 4.8125 L 1.234375 -14.453125 Z M 3.046875 -14.453125 "></path></g></g><g style="fill:#000000;fill-opacity:1;"><g transform="translate(334.967617, 339.567834)"><path style="stroke:none" d=""></path></g></g><g style="fill:#000000;fill-opacity:1;"><g transform="translate(349.221169, 339.567834)"><path style="stroke:none" d="M 5.75 -14.03125 L 5.75 -13.765625 C 5.613281 -13.765625 5.492188 -13.734375 5.390625 -13.671875 C 5.296875 -13.609375 5.25 -13.519531 5.25 -13.40625 C 5.25 -13.3125 5.285156 -13.191406 5.359375 -13.046875 C 5.429688 -12.910156 5.539062 -12.710938 5.6875 -12.453125 L 9.5625 -5.046875 L 13.578125 -12.5 C 13.753906 -12.832031 13.878906 -13.0625 13.953125 -13.1875 C 14.023438 -13.3125 14.0625 -13.414062 14.0625 -13.5 C 14.0625 -13.65625 13.890625 -13.742188 13.546875 -13.765625 L 13.546875 -14.03125 L 17.8125 -14.03125 L 17.8125 -13.765625 C 17.59375 -13.765625 17.453125 -13.722656 17.390625 -13.640625 C 17.328125 -13.554688 17.296875 -13.40625 17.296875 -13.1875 L 17.296875 -0.84375 C 17.296875 -0.644531 17.320312 -0.5 17.375 -0.40625 C 17.4375 -0.3125 17.582031 -0.265625 17.8125 -0.265625 L 17.8125 0 L 14.09375 0 L 14.09375 -0.265625 C 14.289062 -0.265625 14.414062 -0.304688 14.46875 -0.390625 C 14.53125 -0.472656 14.5625 -0.625 14.5625 -0.84375 L 14.5625 -9.5 L 14.515625 -9.5 L 9.546875 0 L 9.28125 0 L 4.359375 -9.609375 L 4.3125 -9.609375 L 4.3125 -0.828125 C 4.3125 -0.609375 4.347656 -0.457031 4.421875 -0.375 C 4.503906 -0.300781 4.660156 -0.265625 4.890625 -0.265625 L 4.890625 0 L 1.46875 0 L 1.46875 -0.265625 C 1.675781 -0.265625 1.8125 -0.300781 1.875 -0.375 C 1.9375 -0.457031 1.96875 -0.609375 1.96875 -0.828125 L 1.96875 -13.171875 C 1.96875 -13.390625 1.9375 -13.539062 1.875 -13.625 C 1.820312 -13.71875 1.6875 -13.765625 1.46875 -13.765625 L 1.46875 -14.03125 Z M 5.75 -14.03125 "></path></g></g><g style="fill:#000000;fill-opacity:1;"><g transform="translate(375.256173, 339.567834)"><path style="stroke:none" d="M 5.953125 -5.90625 L 10.546875 -5.90625 L 8.234375 -10.953125 Z M 10.515625 -14.03125 L 10.515625 -13.765625 C 10.242188 -13.722656 10.109375 -13.628906 10.109375 -13.484375 C 10.109375 -13.378906 10.140625 -13.265625 10.203125 -13.140625 C 10.265625 -13.015625 10.328125 -12.875 10.390625 -12.71875 L 15.875 -1 C 16 -0.726562 16.097656 -0.535156 16.171875 -0.421875 C 16.253906 -0.316406 16.40625 -0.265625 16.625 -0.265625 L 16.625 0 L 12.78125 0 L 12.78125 -0.265625 C 13.007812 -0.265625 13.125 -0.332031 13.125 -0.46875 C 13.125 -0.53125 13.097656 -0.625 13.046875 -0.75 C 12.992188 -0.875 12.925781 -1.03125 12.84375 -1.21875 L 11.671875 -3.703125 L 5.046875 -3.703125 C 4.765625 -3.066406 4.535156 -2.554688 4.359375 -2.171875 C 4.179688 -1.785156 4.039062 -1.492188 3.9375 -1.296875 C 3.84375 -1.109375 3.769531 -0.953125 3.71875 -0.828125 C 3.664062 -0.710938 3.640625 -0.625 3.640625 -0.5625 C 3.640625 -0.394531 3.738281 -0.296875 3.9375 -0.265625 L 3.9375 0 L 0.5 0 L 0.5 -0.265625 C 0.707031 -0.285156 0.851562 -0.347656 0.9375 -0.453125 C 1.019531 -0.554688 1.117188 -0.738281 1.234375 -1 L 6.5 -12.84375 C 6.550781 -12.945312 6.597656 -13.046875 6.640625 -13.140625 C 6.679688 -13.242188 6.703125 -13.335938 6.703125 -13.421875 C 6.703125 -13.609375 6.570312 -13.722656 6.3125 -13.765625 L 6.3125 -14.03125 Z M 10.515625 -14.03125 "></path></g></g><g style="fill:#000000;fill-opacity:1;"><g transform="translate(399.150833, 339.567834)"><path style="stroke:none" d="M 5.828125 -14.03125 L 5.828125 -13.765625 C 5.523438 -13.765625 5.328125 -13.722656 5.234375 -13.640625 C 5.148438 -13.566406 5.109375 -13.414062 5.109375 -13.1875 L 5.109375 -0.8125 C 5.109375 -0.59375 5.160156 -0.445312 5.265625 -0.375 C 5.378906 -0.300781 5.566406 -0.265625 5.828125 -0.265625 L 5.828125 0 L 1.671875 0 L 1.671875 -0.265625 C 1.929688 -0.265625 2.113281 -0.300781 2.21875 -0.375 C 2.320312 -0.445312 2.375 -0.59375 2.375 -0.8125 L 2.375 -13.1875 C 2.375 -13.414062 2.332031 -13.566406 2.25 -13.640625 C 2.164062 -13.722656 1.972656 -13.765625 1.671875 -13.765625 L 1.671875 -14.03125 Z M 5.828125 -14.03125 "></path></g></g><g style="fill:#000000;fill-opacity:1;"><g transform="translate(413.404385, 339.567834)"><path style="stroke:none" d="M 5.65625 -14.03125 L 5.65625 -13.765625 C 5.414062 -13.765625 5.265625 -13.738281 5.203125 -13.6875 C 5.148438 -13.632812 5.125 -13.582031 5.125 -13.53125 C 5.125 -13.46875 5.195312 -13.367188 5.34375 -13.234375 L 13.703125 -4.34375 L 13.703125 -13.234375 C 13.703125 -13.429688 13.671875 -13.566406 13.609375 -13.640625 C 13.554688 -13.722656 13.421875 -13.765625 13.203125 -13.765625 L 13.203125 -14.03125 L 16.65625 -14.03125 L 16.65625 -13.765625 C 16.46875 -13.765625 16.332031 -13.722656 16.25 -13.640625 C 16.175781 -13.554688 16.140625 -13.40625 16.140625 -13.1875 L 16.140625 -0.875 C 16.140625 -0.65625 16.171875 -0.5 16.234375 -0.40625 C 16.304688 -0.3125 16.445312 -0.265625 16.65625 -0.265625 L 16.65625 0 L 13.09375 0 L 13.09375 -0.265625 C 13.195312 -0.265625 13.285156 -0.273438 13.359375 -0.296875 C 13.441406 -0.316406 13.484375 -0.359375 13.484375 -0.421875 C 13.484375 -0.503906 13.445312 -0.578125 13.375 -0.640625 C 13.3125 -0.710938 13.226562 -0.804688 13.125 -0.921875 L 4.4375 -10.25 L 4.4375 -0.8125 C 4.4375 -0.632812 4.46875 -0.5 4.53125 -0.40625 C 4.59375 -0.3125 4.734375 -0.265625 4.953125 -0.265625 L 4.953125 0 L 1.546875 0 L 1.546875 -0.265625 C 1.742188 -0.265625 1.867188 -0.304688 1.921875 -0.390625 C 1.972656 -0.472656 2 -0.609375 2 -0.796875 L 2 -13.234375 C 2 -13.429688 1.972656 -13.566406 1.921875 -13.640625 C 1.867188 -13.722656 1.742188 -13.765625 1.546875 -13.765625 L 1.546875 -14.03125 Z M 5.65625 -14.03125 "></path></g></g><g style="fill:#000000;fill-opacity:1;"><g transform="translate(438.359565, 339.567834)"><path style="stroke:none" d="M 0.5625 -14.5 L 0.828125 -14.5 C 0.828125 -14.1875 1.046875 -14.03125 1.484375 -14.03125 L 13.53125 -14.03125 C 13.957031 -14.03125 14.171875 -14.1875 14.171875 -14.5 L 14.4375 -14.5 L 14.4375 -11.28125 L 14.171875 -11.28125 C 14.171875 -11.601562 13.953125 -11.765625 13.515625 -11.765625 L 8.875 -11.765625 L 8.875 -0.8125 C 8.875 -0.613281 8.910156 -0.472656 8.984375 -0.390625 C 9.054688 -0.304688 9.21875 -0.265625 9.46875 -0.265625 L 9.46875 0 L 5.546875 0 L 5.546875 -0.265625 C 5.796875 -0.265625 5.953125 -0.304688 6.015625 -0.390625 C 6.085938 -0.472656 6.125 -0.613281 6.125 -0.8125 L 6.125 -11.765625 L 1.484375 -11.765625 C 1.046875 -11.765625 0.828125 -11.601562 0.828125 -11.28125 L 0.5625 -11.28125 Z M 0.5625 -14.5 "></path></g></g><g style="fill:#000000;fill-opacity:1;"><g transform="translate(460.113912, 339.567834)"><path style="stroke:none" d="M 5.953125 -5.90625 L 10.546875 -5.90625 L 8.234375 -10.953125 Z M 10.515625 -14.03125 L 10.515625 -13.765625 C 10.242188 -13.722656 10.109375 -13.628906 10.109375 -13.484375 C 10.109375 -13.378906 10.140625 -13.265625 10.203125 -13.140625 C 10.265625 -13.015625 10.328125 -12.875 10.390625 -12.71875 L 15.875 -1 C 16 -0.726562 16.097656 -0.535156 16.171875 -0.421875 C 16.253906 -0.316406 16.40625 -0.265625 16.625 -0.265625 L 16.625 0 L 12.78125 0 L 12.78125 -0.265625 C 13.007812 -0.265625 13.125 -0.332031 13.125 -0.46875 C 13.125 -0.53125 13.097656 -0.625 13.046875 -0.75 C 12.992188 -0.875 12.925781 -1.03125 12.84375 -1.21875 L 11.671875 -3.703125 L 5.046875 -3.703125 C 4.765625 -3.066406 4.535156 -2.554688 4.359375 -2.171875 C 4.179688 -1.785156 4.039062 -1.492188 3.9375 -1.296875 C 3.84375 -1.109375 3.769531 -0.953125 3.71875 -0.828125 C 3.664062 -0.710938 3.640625 -0.625 3.640625 -0.5625 C 3.640625 -0.394531 3.738281 -0.296875 3.9375 -0.265625 L 3.9375 0 L 0.5 0 L 0.5 -0.265625 C 0.707031 -0.285156 0.851562 -0.347656 0.9375 -0.453125 C 1.019531 -0.554688 1.117188 -0.738281 1.234375 -1 L 6.5 -12.84375 C 6.550781 -12.945312 6.597656 -13.046875 6.640625 -13.140625 C 6.679688 -13.242188 6.703125 -13.335938 6.703125 -13.421875 C 6.703125 -13.609375 6.570312 -13.722656 6.3125 -13.765625 L 6.3125 -14.03125 Z M 10.515625 -14.03125 "></path></g></g><g style="fill:#000000;fill-opacity:1;"><g transform="translate(484.008572, 339.567834)"><path style="stroke:none" d="M 5.828125 -14.03125 L 5.828125 -13.765625 C 5.523438 -13.765625 5.328125 -13.722656 5.234375 -13.640625 C 5.148438 -13.566406 5.109375 -13.414062 5.109375 -13.1875 L 5.109375 -0.8125 C 5.109375 -0.59375 5.160156 -0.445312 5.265625 -0.375 C 5.378906 -0.300781 5.566406 -0.265625 5.828125 -0.265625 L 5.828125 0 L 1.671875 0 L 1.671875 -0.265625 C 1.929688 -0.265625 2.113281 -0.300781 2.21875 -0.375 C 2.320312 -0.445312 2.375 -0.59375 2.375 -0.8125 L 2.375 -13.1875 C 2.375 -13.414062 2.332031 -13.566406 2.25 -13.640625 C 2.164062 -13.722656 1.972656 -13.765625 1.671875 -13.765625 L 1.671875 -14.03125 Z M 5.828125 -14.03125 "></path></g></g><g style="fill:#000000;fill-opacity:1;"><g transform="translate(498.262124, 339.567834)"><path style="stroke:none" d="M 5.65625 -14.03125 L 5.65625 -13.765625 C 5.414062 -13.765625 5.265625 -13.738281 5.203125 -13.6875 C 5.148438 -13.632812 5.125 -13.582031 5.125 -13.53125 C 5.125 -13.46875 5.195312 -13.367188 5.34375 -13.234375 L 13.703125 -4.34375 L 13.703125 -13.234375 C 13.703125 -13.429688 13.671875 -13.566406 13.609375 -13.640625 C 13.554688 -13.722656 13.421875 -13.765625 13.203125 -13.765625 L 13.203125 -14.03125 L 16.65625 -14.03125 L 16.65625 -13.765625 C 16.46875 -13.765625 16.332031 -13.722656 16.25 -13.640625 C 16.175781 -13.554688 16.140625 -13.40625 16.140625 -13.1875 L 16.140625 -0.875 C 16.140625 -0.65625 16.171875 -0.5 16.234375 -0.40625 C 16.304688 -0.3125 16.445312 -0.265625 16.65625 -0.265625 L 16.65625 0 L 13.09375 0 L 13.09375 -0.265625 C 13.195312 -0.265625 13.285156 -0.273438 13.359375 -0.296875 C 13.441406 -0.316406 13.484375 -0.359375 13.484375 -0.421875 C 13.484375 -0.503906 13.445312 -0.578125 13.375 -0.640625 C 13.3125 -0.710938 13.226562 -0.804688 13.125 -0.921875 L 4.4375 -10.25 L 4.4375 -0.8125 C 4.4375 -0.632812 4.46875 -0.5 4.53125 -0.40625 C 4.59375 -0.3125 4.734375 -0.265625 4.953125 -0.265625 L 4.953125 0 L 1.546875 0 L 1.546875 -0.265625 C 1.742188 -0.265625 1.867188 -0.304688 1.921875 -0.390625 C 1.972656 -0.472656 2 -0.609375 2 -0.796875 L 2 -13.234375 C 2 -13.429688 1.972656 -13.566406 1.921875 -13.640625 C 1.867188 -13.722656 1.742188 -13.765625 1.546875 -13.765625 L 1.546875 -14.03125 Z M 5.65625 -14.03125 "></path></g></g><g style="fill:#ffffff;fill-opacity:1;"><g transform="translate(21.413403, 309.458244)"><path style="stroke:none" d="M 58.046875 -18.75 L 54.296875 -18.75 L 54.296875 -3.75 C 52.097656 -2.5 48.882812 -1.382812 44.65625 -0.40625 C 40.4375 0.5625 35.875 1.046875 30.96875 1.046875 C 21.625 1.046875 14.300781 -1.410156 9 -6.328125 C 3.695312 -11.253906 1.046875 -18.867188 1.046875 -29.171875 C 1.046875 -39.722656 3.679688 -47.398438 8.953125 -52.203125 C 14.234375 -57.003906 21.773438 -59.40625 31.578125 -59.40625 C 36.328125 -59.40625 40.773438 -58.90625 44.921875 -57.90625 C 49.078125 -56.90625 52.203125 -55.78125 54.296875 -54.53125 L 54.296875 -36.59375 L 35.546875 -36.59375 L 35.546875 -40.125 C 35.546875 -42.226562 35.109375 -43.738281 34.234375 -44.65625 C 33.359375 -45.582031 31.972656 -46.046875 30.078125 -46.046875 C 28.171875 -46.046875 26.78125 -45.582031 25.90625 -44.65625 C 25.03125 -43.738281 24.59375 -42.226562 24.59375 -40.125 L 24.59375 -18.21875 C 24.59375 -16.125 25.03125 -14.613281 25.90625 -13.6875 C 26.78125 -12.757812 28.171875 -12.296875 30.078125 -12.296875 C 31.972656 -12.296875 33.359375 -12.757812 34.234375 -13.6875 C 35.109375 -14.613281 35.546875 -16.125 35.546875 -18.21875 L 35.546875 -18.75 L 31.5 -18.75 L 31.5 -29.921875 L 58.046875 -29.921875 Z M 58.046875 -18.75 "></path></g></g><g style="fill:#ffffff;fill-opacity:1;"><g transform="translate(78.92371, 309.458244)"><path style="stroke:none" d=""></path></g></g><g style="fill:#ffffff;fill-opacity:1;"><g transform="translate(100.293124, 309.458244)"><path style="stroke:none" d="M 1.5 0 L 1.5 -12.296875 L 5.25 -12.296875 L 5.25 -46.046875 L 1.5 -46.046875 L 1.5 -58.34375 L 30 -58.34375 L 30 -46.046875 L 26.25 -46.046875 L 26.25 -12.296875 L 30 -12.296875 L 30 0 Z M 1.5 0 "></path></g></g><g style="fill:#ffffff;fill-opacity:1;"><g transform="translate(130.660278, 309.458244)"><path style="stroke:none" d=""></path></g></g><g style="fill:#ffffff;fill-opacity:1;"><g transform="translate(152.029692, 309.458244)"><path style="stroke:none" d="M 84.21875 -46.046875 L 80.46875 -46.046875 L 80.46875 -12.296875 L 84.21875 -12.296875 L 84.21875 0 L 55.875 0 L 55.875 -12.296875 L 59.46875 -12.296875 L 59.46875 -38.546875 L 46.71875 0 L 35.625 0 L 22.5 -38.171875 L 22.5 -12.296875 L 26.09375 -12.296875 L 26.09375 0 L 1.5 0 L 1.5 -12.296875 L 5.25 -12.296875 L 5.25 -46.046875 L 1.5 -46.046875 L 1.5 -58.34375 L 35.84375 -58.34375 L 43.65625 -34.953125 L 51.15625 -58.34375 L 84.21875 -58.34375 Z M 84.21875 -46.046875 "></path></g></g></g></svg>